PathFileType	4	(X/Y/Z)	C:\Git\research_data\torsion_deformities_healthy_kinematics\simulations\TD07\pre\static_01\markers_HJC.trc
DataRate	CameraRate	NumFrames	NumMarkers	Units	OrigDataRate	OrigDataStartFrame	OrigNumFrames
200	200	4	40	mm	200	106	120
Frame#	Time	C7			T10			CLAV			STRN			RBAK			LASI			RASI			SACR			RT1			RT2			RT3			RKNE			RS1			RS2			RS3			RANK			RHEE			RTOE			RM5D			LT1			LT2			LT3			LKNE			LS1			LS2			LS3			LANK			LHEE			LTOE			LM5D			RHJC			LHJC			LKNM			LANM			RKNM			RANM			LKJC			LAJC			RKJC			RAJC		
		X1	Y1	Z1	X2	Y2	Z2	X3	Y3	Z3	X4	Y4	Z4	X5	Y5	Z5	X6	Y6	Z6	X7	Y7	Z7	X8	Y8	Z8	X9	Y9	Z9	X10	Y10	Z10	X11	Y11	Z11	X12	Y12	Z12	X13	Y13	Z13	X14	Y14	Z14	X15	Y15	Z15	X16	Y16	Z16	X17	Y17	Z17	X18	Y18	Z18	X19	Y19	Z19	X20	Y20	Z20	X21	Y21	Z21	X22	Y22	Z22	X23	Y23	Z23	X24	Y24	Z24	X25	Y25	Z25	X26	Y26	Z26	X27	Y27	Z27	X28	Y28	Z28	X29	Y29	Z29	X30	Y30	Z30	X31	Y31	Z31	X32	Y32	Z32	X33	Y33	Z33	X34	Y34	Z34	X35	Y35	Z35	X36	Y36	Z36	X37	Y37	Z37	X38	Y38	Z38	X39	Y39	Z39	X40	Y40	Z40	

106	0.525000	654.022827	1228.794678	347.219574	664.281555	1004.969604	344.147400	667.390930	1200.666626	220.486893	666.676697	1068.696411	151.651306	756.657593	1095.668945	357.207916	545.816467	797.713745	207.827301	801.536194	833.086426	195.505936	673.926514	853.791199	355.483307	864.321594	607.733032	306.867615	862.238892	547.367432	335.462372	874.989868	545.828430	285.971649	881.149353	442.588348	297.764709	915.510010	350.773468	350.066010	922.064209	288.269043	375.608032	937.676819	293.290375	325.590546	962.041504	87.461807	321.888275	922.924072	45.926491	358.780090	978.803772	47.437820	167.509079	1003.340271	34.450783	257.290192	481.529663	615.854980	255.576813	472.538025	559.682190	290.948059	480.376007	551.714355	240.143539	452.529022	422.023193	304.429474	400.717194	310.213623	318.563446	386.130890	255.495850	353.208282	381.222748	248.745514	302.600708	349.172241	71.262566	334.951752	387.289490	43.414509	357.596588	297.810516	42.669727	178.662827	286.301331	29.794706	273.314331	778.675639	754.851356	264.922169	595.454770	729.507151	273.750316	541.808167	383.345123	260.896942	407.392914	67.454048	271.738861	792.231140	404.697754	267.130157	888.163940	74.904770	278.322876	497.168594	402.684158	282.663208	378.282578	69.358307	303.345306	836.690247	423.643051	282.447433	925.102722	81.183289	300.105576	
107	0.530000	654.041748	1228.797852	347.192749	664.311768	1004.969360	344.115631	667.372131	1200.672241	220.463455	666.600464	1068.711670	151.599869	756.661926	1095.636719	357.132935	545.783325	797.722656	207.799973	801.498291	833.085266	195.371613	673.962769	853.785767	355.401550	864.307434	607.743774	306.751526	862.267212	547.377808	335.330200	874.977295	545.829895	285.864746	881.141968	442.594025	297.689575	915.499573	350.786804	349.989960	922.055481	288.302765	375.558685	937.673584	293.294159	325.544434	962.031616	87.465057	321.886444	922.921021	45.926807	358.776520	978.801086	47.431213	167.509567	1003.348511	34.451500	257.272583	481.513702	615.859192	255.551010	472.532806	559.685913	290.920441	480.327515	551.731995	240.105194	452.526154	422.025177	304.398865	400.717621	310.215607	318.542664	386.133148	255.495911	353.193634	381.222900	248.745163	302.585449	349.181305	71.264870	334.947876	387.291656	43.419342	357.596436	297.808929	42.669533	178.661148	286.303162	29.797249	273.312683	778.664213	754.847122	264.792137	595.446700	729.510125	273.696947	541.801636	383.345245	260.857361	407.396149	67.450935	271.733307	792.221985	404.695343	267.077911	888.155823	74.901085	278.319366	497.163895	402.685211	282.628113	378.288727	69.357903	303.340591	836.681976	423.644684	282.383743	925.093719	81.183071	300.102905	
108	0.535000	654.061340	1228.800537	347.165955	664.341980	1004.968994	344.083374	667.353516	1200.677734	220.440475	666.523499	1068.727051	151.548141	756.666138	1095.603394	357.057251	545.749817	797.731567	207.771484	801.460022	833.084106	195.234985	673.999390	853.780151	355.318085	864.293274	607.754578	306.633484	862.297241	547.388245	335.194366	874.964600	545.831238	285.756042	881.134521	442.599731	297.613068	915.488831	350.800385	349.912476	922.046509	288.337067	375.508545	937.670288	293.297913	325.497498	962.021545	87.468338	321.884613	922.917908	45.927135	358.772858	978.798340	47.424492	167.510056	1003.356934	34.452225	257.254669	481.497711	615.863342	255.524139	472.527649	559.689636	290.891785	480.278442	551.749817	240.065643	452.523346	422.027161	304.367523	400.718140	310.217651	318.521393	386.135437	255.495941	353.178711	381.223114	248.744797	302.569824	349.190460	71.267235	334.943939	387.293823	43.424274	357.596344	297.807343	42.669350	178.659424	286.305023	29.799847	273.310974	778.652719	754.842775	264.659812	595.438570	729.512987	273.642105	541.795166	383.345215	260.816864	407.399414	67.447746	271.727692	792.212891	404.692902	267.024567	888.147583	74.897331	278.315735	497.159256	402.686188	282.592194	378.294937	69.357491	303.335815	836.673706	423.646317	282.318817	925.084564	81.182835	300.100174	
109	0.540000	654.081604	1228.802734	347.139160	664.372314	1004.968506	344.050598	667.335022	1200.683228	220.417938	666.445740	1068.742310	151.496124	756.670227	1095.568970	356.980835	545.716003	797.740356	207.741806	801.421265	833.083008	195.096069	674.036499	853.774414	355.232910	864.279175	607.765564	306.513458	862.328979	547.398804	335.054840	874.951782	545.832642	285.645538	881.127136	442.605469	297.535156	915.477844	350.814178	349.833496	922.037292	288.371918	375.457581	937.667053	293.301636	325.449768	962.011292	87.471634	321.882782	922.914673	45.927467	358.769104	978.795532	47.417656	167.510529	1003.365479	34.452953	257.236481	481.481628	615.867371	255.496201	472.522614	559.693298	290.862122	480.228790	551.767761	240.024902	452.520630	422.029114	304.335388	400.718781	310.219696	318.499603	386.137787	255.495926	353.163513	381.223389	248.744431	302.553802	349.199707	71.269653	334.939941	387.295990	43.429302	357.596252	297.805756	42.669178	178.657669	286.306885	29.802500	273.309265	778.641107	754.838433	264.525225	595.430448	729.515722	273.585789	541.788696	383.345093	260.775482	407.402710	67.444489	271.721985	792.203735	404.690460	266.970093	888.139221	74.893509	278.311981	497.154663	402.687103	282.555435	378.301208	69.357071	303.330963	836.665436	423.647964	282.252625	925.075256	81.182571	300.097382	
